# xmcd
#
# Track frame offsets:
#	150
#	21567
#	48230
#	69677
#	92145
#	112710
#	133722
#	157950
#
# Disc length: 2393 seconds
#
# Revision: 1
# Processed by: cddbd v1.5.1PL0 Copyright (c) Steve Scherf et al.
# Submitted via: CDex 1.50Beta5
#
DISCID=64095708
DTITLE=サニーサイドガーデン - ももいろ
DYEAR=1900
DGENRE=Alt-Folk
TTITLE0=にじ
TTITLE1=I Wish
TTITLE2=心に光を・・・
TTITLE3=No Place To Go
TTITLE4=ももいろ
TTITLE5=春風に吹かれて
TTITLE6=Darlin'
TTITLE7=優しい涙
EXTD=
EXTT0=
EXTT1=
EXTT2=
EXTT3=
EXTT4=
EXTT5=
EXTT6=
EXTT7=
PLAYORDER=
